<svg id="svg" version="1.1" xmlns="http://www.w3.org/2000/svg" xmlns:xlink="http://www.w3.org/1999/xlink" width="400" height="400" viewBox="0, 0, 400,400"><g id="svgg"><path id="path0" d="M108.591 19.139 C 99.571 20.567,90.927 27.332,86.469 36.453 C 85.474 38.488,85.255 38.704,84.378 38.511 C 72.143 35.822,61.038 43.030,58.661 55.204 L 58.008 58.547 55.537 59.168 C 50.459 60.445,46.220 63.488,44.539 67.063 C 42.640 71.103,43.208 77.241,45.627 78.825 C 46.970 79.704,165.260 79.574,167.368 78.691 C 172.509 76.536,173.509 64.699,169.266 56.217 C 165.039 47.767,154.233 41.752,146.442 43.511 C 144.893 43.861,143.589 44.102,143.544 44.046 C 143.498 43.991,142.983 42.451,142.399 40.625 C 137.583 25.565,123.708 16.746,108.591 19.139 M254.808 19.124 C 238.665 20.983,226.113 26.997,214.838 38.274 C 199.574 53.541,192.561 75.316,196.028 96.680 C 202.065 133.889,232.338 156.567,271.094 152.914 C 287.067 151.409,304.801 141.687,314.853 128.925 L 317.329 125.781 330.442 125.757 C 337.654 125.744,350.646 125.668,359.314 125.589 L 375.073 125.446 376.614 124.426 C 381.066 121.480,383.861 112.469,382.241 106.281 C 379.071 94.172,367.411 87.709,354.444 90.873 C 353.736 91.046,353.574 90.855,353.344 89.581 C 351.353 78.571,340.986 68.754,330.220 67.687 L 327.156 67.383 326.543 64.453 C 320.745 36.710,287.040 15.412,254.808 19.124 M120.089 26.017 C 128.314 28.137,134.896 35.384,137.142 44.790 C 138.803 51.748,139.390 52.188,144.642 50.415 C 151.798 47.998,160.641 52.340,164.147 59.992 C 165.167 62.218,165.429 69.970,164.552 71.973 L 164.082 73.047 106.802 73.047 L 49.522 73.047 49.794 71.582 C 50.624 67.095,53.534 64.687,58.694 64.219 C 63.269 63.804,63.937 63.129,64.843 58.008 C 66.812 46.876,76.760 41.138,85.131 46.305 C 88.665 48.486,89.522 48.068,90.634 43.615 C 93.994 30.172,106.718 22.570,120.089 26.017 M268.194 25.416 C 292.392 27.772,313.908 44.004,320.310 64.733 C 321.329 68.032,321.404 67.818,319.043 68.374 C 316.057 69.078,313.038 70.724,310.200 73.194 L 307.704 75.365 306.594 72.062 C 294.550 36.221,246.739 28.999,225.306 59.783 C 198.064 98.909,238.026 146.738,281.776 127.370 L 286.248 125.391 291.854 125.441 C 294.938 125.469,300.098 125.602,303.320 125.737 L 309.180 125.983 305.273 129.912 C 285.432 149.865,249.688 152.463,226.062 135.669 C 202.966 119.250,194.719 84.015,208.040 58.671 C 218.893 38.022,236.015 26.963,259.766 25.262 C 263.433 25.000,264.037 25.011,268.194 25.416 M268.555 47.059 C 285.254 49.775,298.949 62.748,302.335 79.059 C 302.757 81.092,302.710 81.439,301.608 84.463 C 300.961 86.241,300.328 88.191,300.201 88.797 C 299.988 89.820,299.881 89.876,298.716 89.579 C 281.610 85.206,266.546 105.468,275.655 120.596 C 276.376 121.793,276.920 122.813,276.862 122.862 C 276.380 123.271,270.377 125.038,268.359 125.364 C 245.376 129.086,223.963 112.022,222.777 89.040 C 221.453 63.356,243.642 43.007,268.555 47.059 M332.633 74.825 C 340.698 76.925,346.189 84.096,347.506 94.248 C 348.469 101.671,349.483 102.540,353.313 99.225 C 363.424 90.474,381.227 103.999,374.821 115.563 C 372.707 119.380,377.789 119.020,328.259 118.855 C 278.934 118.690,282.861 118.962,280.754 115.571 C 274.215 105.044,289.559 90.778,299.820 97.845 C 302.035 99.370,302.655 99.482,304.269 98.647 C 305.721 97.896,305.886 97.400,306.240 92.724 C 307.216 79.844,319.615 71.435,332.633 74.825 M86.460 93.776 C 85.113 94.277,84.985 95.365,85.114 105.202 L 85.236 114.505 79.630 114.385 L 74.023 114.266 69.141 115.971 C 62.195 118.396,32.869 131.015,31.329 132.241 L 30.040 133.266 30.080 138.215 C 30.101 140.937,30.110 174.922,30.099 213.737 L 30.078 284.309 23.535 284.440 C 15.003 284.610,14.692 284.746,14.533 288.383 C 14.469 289.831,14.469 291.044,14.533 291.078 C 14.596 291.112,18.340 291.244,22.852 291.371 L 31.055 291.602 31.159 301.119 C 31.255 309.821,31.209 310.615,30.621 310.389 C 27.186 309.071,18.625 309.062,15.918 310.373 L 14.453 311.082 14.453 314.093 L 14.453 317.103 17.676 316.374 C 21.697 315.464,24.257 315.439,26.980 316.282 C 28.147 316.643,29.217 316.912,29.357 316.880 C 29.929 316.750,30.029 318.272,29.958 326.000 L 29.883 334.085 23.064 335.988 C 19.314 337.034,15.842 337.891,15.349 337.891 C 14.485 337.891,14.453 338.009,14.453 341.211 L 14.453 344.531 15.918 344.527 C 16.724 344.525,19.580 343.906,22.266 343.152 C 35.363 339.475,45.956 339.901,56.890 344.544 C 72.843 351.318,80.580 351.372,97.266 344.826 C 113.374 338.507,120.867 338.742,137.500 346.089 C 148.788 351.075,161.398 350.769,172.404 345.241 C 182.329 340.256,192.169 338.944,200.977 341.432 C 202.695 341.917,205.508 342.602,207.227 342.953 L 210.352 343.591 210.352 349.627 L 210.352 355.664 198.242 355.885 C 182.891 356.165,179.772 356.809,171.875 361.328 C 160.191 368.015,151.727 368.163,138.672 361.909 C 128.350 356.965,126.487 356.490,117.383 356.490 C 108.314 356.490,106.331 356.986,96.484 361.715 C 81.991 368.676,75.862 368.711,61.133 361.915 C 44.242 354.121,34.221 353.997,19.238 361.396 L 14.453 363.759 14.453 366.853 C 14.453 370.924,14.441 370.923,21.146 367.485 C 34.915 360.426,41.580 360.441,57.227 367.563 C 74.417 375.389,81.795 375.427,98.303 367.778 C 114.107 360.455,119.275 360.311,133.376 366.797 C 149.160 374.058,161.522 374.487,172.461 368.154 C 180.623 363.428,184.016 362.429,192.676 362.203 L 199.609 362.022 199.609 373.003 L 199.609 383.984 202.930 383.984 L 206.250 383.984 206.250 372.852 L 206.250 361.719 294.847 361.719 C 365.990 361.719,383.578 361.621,384.125 361.221 C 384.681 360.814,384.784 360.227,384.688 357.999 L 384.570 355.273 381.641 355.038 C 380.029 354.909,374.360 354.821,369.043 354.843 L 359.375 354.883 359.375 347.400 L 359.375 339.917 363.044 339.642 C 367.570 339.302,370.396 339.598,376.172 341.015 C 378.643 341.622,381.595 342.239,382.732 342.387 L 384.800 342.656 384.685 339.594 L 384.570 336.532 379.102 335.027 C 373.750 333.553,373.480 333.520,366.505 333.460 L 359.378 333.398 359.376 324.554 L 359.375 315.710 360.840 315.134 C 365.683 313.231,369.595 313.301,377.934 315.438 C 385.295 317.324,384.821 317.451,384.684 313.634 L 384.570 310.471 381.641 309.529 C 373.593 306.940,365.828 306.415,361.328 308.154 C 360.146 308.610,359.048 308.984,358.887 308.984 C 358.496 308.984,358.508 291.896,358.899 291.654 C 359.067 291.551,364.296 291.356,370.520 291.222 C 376.744 291.088,382.407 290.891,383.105 290.784 L 384.375 290.590 384.375 287.482 L 384.375 284.375 371.680 284.375 L 358.984 284.375 358.989 275.684 C 358.994 264.751,359.050 264.389,360.898 263.350 C 364.122 261.538,370.828 260.307,373.817 260.978 C 377.576 261.823,382.635 264.572,384.026 266.525 C 384.157 266.708,384.389 265.145,384.543 263.052 C 384.871 258.587,384.604 258.001,381.431 256.208 C 375.863 253.063,367.127 253.153,359.640 256.434 C 358.953 256.735,358.930 255.538,358.986 223.588 C 359.019 205.351,359.032 190.064,359.015 189.616 C 358.992 189.018,357.845 188.090,354.667 186.101 C 352.293 184.615,347.679 181.624,344.414 179.456 C 338.915 175.804,330.567 170.643,327.344 168.902 C 326.022 168.188,324.176 168.164,271.331 168.164 L 216.686 168.164 215.667 169.479 C 215.107 170.202,213.498 172.223,212.092 173.971 C 203.470 184.690,200.391 188.862,200.391 189.825 C 200.391 192.289,202.464 193.353,207.270 193.357 L 210.048 193.359 210.311 196.261 C 210.456 197.856,210.554 206.132,210.530 214.652 L 210.486 230.143 208.466 229.818 C 203.282 228.983,198.446 229.595,195.787 231.424 C 193.175 233.221,190.617 234.471,186.719 235.858 C 184.893 236.507,183.091 237.161,182.715 237.311 C 182.066 237.570,182.031 234.535,182.031 176.860 L 182.031 116.137 181.209 115.393 C 180.428 114.686,179.465 114.644,162.166 114.557 C 152.145 114.506,143.462 114.462,142.871 114.459 L 141.797 114.453 141.797 104.748 C 141.797 95.377,141.769 95.017,140.974 94.299 C 140.095 93.503,88.524 93.009,86.460 93.776 M91.921 103.515 C 91.881 105.482,92.010 107.031,92.214 107.031 C 92.414 107.031,92.578 107.217,92.578 107.445 C 92.578 107.672,92.384 107.739,92.146 107.592 C 91.844 107.405,91.769 107.952,91.897 109.424 C 91.998 110.579,91.941 111.875,91.771 112.305 C 91.598 112.740,91.449 110.188,91.434 106.543 C 91.419 102.944,91.538 100.000,91.699 100.000 C 91.860 99.999,91.960 101.582,91.921 103.515 M105.957 100.290 C 104.086 100.379,103.123 100.585,103.119 100.896 C 103.114 101.260,103.044 101.259,102.811 100.891 C 102.605 100.568,100.882 100.376,97.445 100.292 C 94.661 100.225,96.074 100.167,100.586 100.163 C 105.098 100.159,107.515 100.216,105.957 100.290 M125.391 100.293 C 125.391 100.454,123.414 100.537,120.996 100.478 C 114.414 100.315,113.969 100.124,120.020 100.059 C 122.974 100.026,125.391 100.132,125.391 100.293 M135.547 100.293 C 135.547 100.454,133.833 100.537,131.739 100.476 C 125.666 100.302,125.180 100.130,130.566 100.063 C 133.306 100.028,135.547 100.132,135.547 100.293 M135.525 106.836 C 135.499 109.951,135.352 112.500,135.198 112.500 C 135.045 112.500,134.929 109.951,134.940 106.836 C 134.952 103.721,135.098 101.172,135.266 101.172 C 135.434 101.172,135.551 103.721,135.525 106.836 M135.252 113.867 C 135.149 114.404,134.998 114.844,134.915 114.844 C 134.833 114.844,134.766 114.404,134.766 113.867 C 134.766 113.330,134.917 112.891,135.102 112.891 C 135.287 112.891,135.355 113.330,135.252 113.867 M96.484 114.366 C 96.484 114.533,95.781 114.602,94.922 114.520 C 94.063 114.438,93.359 114.302,93.359 114.217 C 93.359 114.132,94.063 114.063,94.922 114.063 C 95.781 114.063,96.484 114.199,96.484 114.366 M132.617 114.593 C 133.047 114.672,125.279 114.761,115.355 114.791 C 105.431 114.820,97.230 114.712,97.130 114.551 C 96.954 114.265,131.065 114.306,132.617 114.593 M175.294 228.967 L 175.392 336.645 171.192 338.411 C 164.417 341.259,162.877 341.780,159.421 342.391 C 155.494 343.084,151.618 343.134,149.557 342.516 L 148.047 342.064 148.047 314.001 C 148.047 286.458,148.032 285.923,147.266 285.156 C 146.386 284.277,108.254 283.902,106.656 284.757 C 105.156 285.560,105.078 286.871,105.078 311.353 L 105.078 335.089 102.472 335.930 C 101.039 336.393,96.925 337.901,93.330 339.280 C 86.060 342.070,82.814 342.954,79.815 342.963 L 77.795 342.969 77.634 337.598 C 77.329 327.390,77.540 122.069,77.856 121.581 C 78.108 121.191,88.136 121.111,126.684 121.190 L 175.195 121.289 175.294 228.967 M70.838 127.991 C 71.173 134.969,71.171 308.785,70.836 327.831 L 70.578 342.509 69.175 342.294 C 68.404 342.176,65.752 341.237,63.281 340.207 C 54.020 336.349,47.355 334.552,40.722 334.124 L 36.717 333.866 36.816 235.238 L 36.914 136.611 42.188 134.288 C 58.029 127.310,69.061 122.760,70.350 122.672 C 70.477 122.663,70.697 125.057,70.838 127.991 M145.418 133.581 L 134.782 133.789 133.815 134.766 L 132.849 135.742 132.777 151.500 L 132.705 167.257 133.744 168.297 L 134.783 169.336 148.503 169.448 C 162.197 169.560,162.225 169.559,163.143 168.697 L 164.063 167.833 164.063 151.972 C 164.063 133.028,164.067 133.042,158.118 133.288 C 156.983 133.335,151.268 133.467,145.418 133.581 M89.952 134.364 C 88.209 135.427,88.237 135.117,88.363 152.280 L 88.477 167.646 89.573 168.589 L 90.669 169.531 104.319 169.531 C 119.464 169.531,119.545 169.517,119.522 166.895 C 119.517 166.304,119.603 159.428,119.714 151.614 C 119.931 136.273,119.857 135.585,117.831 134.166 C 116.396 133.161,91.637 133.337,89.952 134.364 M113.203 140.034 C 113.492 140.303,113.441 162.858,113.151 163.149 C 112.797 163.504,95.515 163.614,95.165 163.264 C 94.633 162.732,94.754 140.189,95.290 139.857 C 95.752 139.572,112.887 139.741,113.203 140.034 M156.332 139.794 L 158.172 139.844 158.090 151.660 L 158.008 163.477 148.853 163.534 C 143.818 163.566,139.467 163.503,139.185 163.395 C 138.283 163.048,138.450 139.954,139.355 139.738 C 139.938 139.599,150.398 139.634,156.332 139.794 M51.984 143.158 C 43.203 145.414,44.011 143.725,44.210 159.419 C 44.434 177.099,43.745 176.409,57.517 172.759 C 58.752 172.432,60.202 171.756,60.740 171.257 L 61.719 170.350 61.719 157.072 C 61.719 139.691,62.291 140.509,51.984 143.158 M56.250 158.172 L 56.250 167.125 55.176 167.327 C 54.585 167.437,53.263 167.638,52.239 167.773 L 50.376 168.019 50.481 158.929 L 50.586 149.839 51.563 149.568 C 52.100 149.419,53.374 149.279,54.395 149.258 L 56.250 149.219 56.250 158.172 M327.545 176.397 C 329.046 177.487,332.866 180.074,336.035 182.144 C 339.204 184.215,341.797 185.959,341.797 186.021 C 341.797 186.082,326.812 186.122,308.496 186.110 C 290.181 186.097,260.869 186.187,243.359 186.311 C 225.850 186.434,211.469 186.508,211.403 186.474 C 211.336 186.440,212.881 184.240,214.835 181.585 C 216.790 178.930,218.708 176.320,219.097 175.785 C 220.127 174.370,219.348 174.390,274.811 174.402 L 324.817 174.414 327.545 176.397 M89.240 184.553 C 88.678 185.115,88.282 185.963,88.283 186.603 C 88.284 187.204,88.263 194.214,88.235 202.182 C 88.183 217.396,88.233 217.888,89.944 218.804 C 91.014 219.377,116.958 219.291,118.042 218.711 C 119.823 217.757,119.922 216.883,119.920 202.070 C 119.917 181.655,121.625 183.594,103.641 183.594 L 90.199 183.594 89.240 184.553 M134.304 184.194 C 132.829 184.995,132.871 184.523,132.738 201.649 L 132.617 217.166 133.506 218.055 C 135.007 219.558,160.958 219.831,162.889 218.365 L 163.864 217.625 163.924 201.879 C 163.987 185.305,163.970 185.142,162.117 184.184 C 160.460 183.327,135.884 183.336,134.304 184.194 M54.297 188.645 C 43.092 192.594,44.336 190.380,44.336 206.379 C 44.336 223.014,43.457 221.566,53.103 220.826 C 62.428 220.111,61.719 221.547,61.719 203.389 C 61.719 185.652,61.880 185.973,54.297 188.645 M113.358 198.145 C 113.400 202.710,113.458 207.451,113.487 208.680 C 113.516 209.909,113.462 211.447,113.366 212.098 L 113.193 213.281 104.057 213.281 L 94.922 213.281 94.922 201.563 L 94.922 189.844 104.102 189.844 L 113.281 189.844 113.358 198.145 M157.926 193.066 C 158.047 194.839,158.115 200.068,158.077 204.688 L 158.008 213.086 149.609 213.200 C 144.990 213.263,140.640 213.211,139.941 213.085 L 138.672 212.855 138.672 201.349 L 138.672 189.844 148.188 189.844 L 157.705 189.844 157.926 193.066 M314.152 233.496 C 314.202 255.786,314.201 283.955,314.150 296.094 C 314.099 308.232,314.059 326.472,314.060 336.625 L 314.063 355.087 298.145 354.985 L 282.227 354.883 282.132 329.883 C 282.038 304.943,282.036 304.881,281.210 304.199 C 279.799 303.034,247.706 303.163,246.643 304.338 C 245.932 305.123,245.890 306.271,245.703 330.021 L 245.508 354.883 233.594 355.078 C 227.041 355.186,220.607 355.222,219.296 355.159 L 216.912 355.044 216.646 350.329 C 216.378 345.585,216.731 194.368,217.012 193.457 C 217.132 193.070,227.194 192.969,265.613 192.969 L 314.063 192.969 314.152 233.496 M352.436 238.184 C 352.379 263.052,352.335 299.438,352.338 319.043 L 352.344 354.688 336.523 354.688 L 320.703 354.688 320.703 274.051 L 320.703 193.414 321.582 193.244 C 322.065 193.151,329.229 193.051,337.500 193.022 L 352.539 192.969 352.436 238.184 M56.250 204.883 L 56.250 214.844 55.371 214.847 C 54.888 214.849,53.569 214.961,52.441 215.097 L 50.391 215.343 50.391 205.562 L 50.391 195.781 51.855 195.392 C 52.661 195.178,53.979 194.984,54.785 194.962 L 56.250 194.922 56.250 204.883 M273.473 205.764 L 272.396 206.841 272.135 215.788 C 271.532 236.507,271.761 239.800,273.893 241.135 C 275.011 241.835,297.086 242.390,299.316 241.774 C 302.173 240.985,302.057 241.768,302.047 223.442 C 302.041 210.634,301.929 206.886,301.536 206.414 C 300.183 204.783,299.364 204.688,286.708 204.688 L 274.549 204.688 273.473 205.764 M230.371 205.500 C 228.585 206.540,228.516 207.235,228.516 224.004 C 228.516 241.433,228.464 241.059,230.947 241.569 C 234.122 242.221,256.298 242.079,257.135 241.401 L 258.008 240.695 258.118 224.756 C 258.236 207.777,258.192 207.303,256.340 205.846 C 255.224 204.968,231.820 204.656,230.371 205.500 M251.315 210.951 C 251.466 211.102,251.712 232.585,251.594 235.283 C 251.565 235.934,251.269 235.975,248.145 235.764 C 246.265 235.637,242.441 235.404,239.648 235.247 L 234.570 234.961 234.681 227.148 C 234.790 219.401,234.929 216.590,235.402 212.555 L 235.648 210.462 243.387 210.612 C 247.644 210.695,251.212 210.847,251.315 210.951 M295.215 210.936 L 296.094 210.938 296.094 223.242 L 296.094 235.547 289.941 235.544 C 286.558 235.543,282.603 235.429,281.152 235.292 L 278.516 235.043 278.516 222.734 L 278.516 210.424 286.426 210.679 C 290.776 210.819,294.731 210.935,295.215 210.936 M328.817 213.379 C 327.735 214.217,327.628 238.645,328.701 239.831 C 329.958 241.223,343.257 240.909,344.707 239.453 C 345.907 238.249,345.839 239.123,345.765 225.861 L 345.703 214.808 344.744 213.849 C 343.619 212.724,330.173 212.327,328.817 213.379 M338.034 219.188 C 339.345 219.785,339.442 220.360,339.448 227.605 C 339.454 235.454,339.564 235.156,336.677 235.156 L 334.375 235.156 334.380 227.832 C 334.387 218.222,334.634 217.639,338.034 219.188 M90.166 234.263 C 88.329 235.402,88.281 235.849,88.281 251.754 L 88.281 266.753 89.201 267.822 C 90.456 269.282,92.242 269.458,106.182 269.498 L 117.638 269.531 118.711 268.457 L 119.784 267.383 119.837 252.196 C 119.895 235.545,119.873 235.366,117.591 234.186 C 115.804 233.262,91.671 233.329,90.166 234.263 M133.767 234.557 L 132.804 235.520 132.906 251.605 L 133.008 267.689 134.110 268.513 C 135.173 269.307,135.687 269.340,148.628 269.453 L 162.044 269.569 162.858 268.695 C 163.306 268.215,163.683 267.547,163.697 267.211 C 163.711 266.876,163.744 259.702,163.771 251.270 L 163.819 235.938 162.696 234.766 L 161.573 233.594 148.151 233.594 L 134.730 233.594 133.767 234.557 M206.738 236.563 L 210.156 237.191 210.156 260.764 L 210.156 284.338 196.091 284.365 L 182.025 284.392 182.039 264.741 L 182.052 245.089 184.678 243.484 C 186.123 242.601,188.359 241.347,189.648 240.697 C 190.938 240.047,193.394 238.710,195.108 237.726 C 198.727 235.648,200.685 235.452,206.738 236.563 M54.492 236.588 C 50.651 237.054,45.913 238.426,45.004 239.335 L 44.035 240.305 44.231 253.063 C 44.496 270.197,44.589 270.340,54.466 268.754 C 62.119 267.526,61.719 268.485,61.719 251.370 L 61.719 237.947 60.690 237.138 C 59.675 236.340,57.860 236.178,54.492 236.588 M113.281 245.898 C 113.389 249.336,113.416 254.565,113.341 257.520 L 113.206 262.891 104.064 262.891 L 94.922 262.891 94.889 257.129 C 94.871 253.960,94.792 249.785,94.714 247.852 C 94.635 245.918,94.674 243.234,94.801 241.887 L 95.031 239.439 104.059 239.544 L 113.086 239.648 113.281 245.898 M157.696 239.967 C 157.940 240.118,158.117 244.488,158.166 251.557 L 158.246 262.904 148.557 262.800 L 138.867 262.695 138.764 251.022 L 138.660 239.349 147.982 239.537 C 153.110 239.641,157.481 239.834,157.696 239.967 M55.632 243.206 C 56.172 243.413,56.250 244.622,56.250 252.734 C 56.250 263.286,56.536 262.500,52.695 262.500 L 50.377 262.500 50.481 253.027 L 50.586 243.555 52.734 243.325 C 53.916 243.199,54.912 243.067,54.949 243.032 C 54.985 242.997,55.292 243.075,55.632 243.206 M274.737 255.626 C 272.212 256.770,272.243 256.564,271.986 273.526 C 271.733 290.265,271.769 290.744,273.346 291.543 C 275.005 292.383,298.064 292.721,300.032 291.934 C 302.212 291.062,302.218 291.008,302.157 273.677 L 302.101 257.706 300.849 256.587 L 299.597 255.469 290.912 255.460 C 286.135 255.455,280.820 255.364,279.102 255.257 C 276.865 255.119,275.624 255.223,274.737 255.626 M332.535 255.368 C 327.958 255.586,328.125 255.050,328.125 269.566 C 328.125 282.524,328.220 283.215,330.112 283.998 C 331.615 284.621,343.603 284.351,344.824 283.668 L 345.703 283.176 345.703 270.715 C 345.703 253.436,346.777 254.688,332.535 255.368 M229.807 256.802 L 228.711 257.744 228.597 273.748 L 228.483 289.751 229.701 290.969 L 230.919 292.188 237.077 292.188 C 240.464 292.188,246.144 292.302,249.700 292.443 L 256.166 292.698 257.197 291.667 L 258.228 290.636 258.118 274.190 L 258.008 257.744 256.912 256.802 L 255.816 255.859 243.359 255.859 L 230.903 255.859 229.807 256.802 M295.020 261.324 L 296.094 261.328 296.094 274.023 L 296.094 286.719 289.922 286.719 C 286.527 286.719,283.583 286.553,283.379 286.351 C 283.175 286.148,282.041 285.928,280.859 285.862 L 278.711 285.742 278.607 273.832 C 278.550 267.282,278.599 261.673,278.716 261.369 C 278.894 260.907,280.155 260.857,286.437 261.069 C 290.566 261.207,294.429 261.322,295.020 261.324 M251.385 261.803 C 251.445 261.864,251.554 267.407,251.626 274.121 L 251.758 286.329 245.898 286.326 C 242.676 286.324,238.853 286.211,237.402 286.074 L 234.766 285.825 234.763 277.580 C 234.762 273.046,234.973 267.508,235.231 265.273 L 235.701 261.210 243.488 261.451 C 247.771 261.583,251.324 261.742,251.385 261.803 M339.364 269.731 C 339.483 278.909,339.620 278.500,336.426 278.510 L 334.375 278.516 334.375 271.930 C 334.375 262.490,334.505 261.790,336.281 261.642 C 339.535 261.370,339.245 260.608,339.364 269.731 M51.586 286.534 C 44.284 287.855,44.127 288.097,44.182 297.912 C 44.289 316.870,44.329 316.930,55.646 314.910 C 62.405 313.704,61.888 314.834,61.792 301.475 C 61.749 295.400,61.714 289.933,61.716 289.325 C 61.724 286.219,58.396 285.302,51.586 286.534 M124.020 291.021 C 123.920 291.184,123.317 291.393,122.682 291.486 C 122.046 291.579,121.604 291.528,121.701 291.372 C 121.797 291.216,119.760 291.068,117.173 291.042 L 112.470 290.996 112.496 293.838 C 112.533 297.841,112.183 304.744,111.930 304.997 C 111.641 305.287,111.668 299.077,111.976 294.414 L 112.230 290.587 118.216 290.657 C 121.508 290.695,124.120 290.859,124.020 291.021 M134.619 291.016 L 141.797 291.016 141.797 311.198 C 141.797 322.298,141.688 331.271,141.554 331.137 C 141.420 331.004,141.341 322.010,141.378 311.150 L 141.446 291.406 133.516 291.360 C 129.154 291.335,125.349 291.346,125.058 291.386 C 124.748 291.429,124.647 291.271,124.813 291.002 C 124.984 290.725,125.556 290.638,126.268 290.781 C 126.913 290.910,130.671 291.016,134.619 291.016 M210.156 301.544 L 210.156 312.124 209.082 311.872 C 208.491 311.733,205.283 310.744,201.953 309.673 L 195.898 307.727 191.602 307.953 C 189.238 308.077,186.027 308.519,184.466 308.935 L 181.626 309.691 181.731 300.646 L 181.836 291.602 192.188 291.406 C 197.881 291.299,204.253 291.155,206.348 291.087 L 210.156 290.963 210.156 301.544 M56.250 300.736 C 56.250 310.056,56.557 309.359,52.441 309.370 L 50.391 309.375 50.391 301.198 L 50.391 293.021 51.465 292.858 C 52.056 292.768,53.374 292.669,54.395 292.637 L 56.250 292.578 56.250 300.736 M112.196 314.746 C 112.026 325.010,111.788 325.219,111.750 315.137 C 111.733 310.679,111.855 307.031,112.021 307.031 C 112.188 307.031,112.266 310.503,112.196 314.746 M272.183 310.187 C 273.533 310.401,274.808 310.470,275.015 310.342 C 275.221 310.215,275.395 310.428,275.400 310.817 C 275.514 319.223,275.332 354.467,275.173 354.723 C 275.050 354.923,270.016 355.078,263.655 355.078 L 252.356 355.078 252.252 332.389 C 252.195 319.910,252.195 309.654,252.252 309.596 C 252.522 309.327,270.020 309.846,272.183 310.187 M198.242 315.331 C 199.316 315.661,202.305 316.419,204.883 317.016 C 211.110 318.459,210.548 317.476,210.542 326.903 C 210.534 337.725,210.574 337.642,206.297 335.956 C 202.103 334.303,198.281 333.798,189.941 333.793 L 182.031 333.789 182.031 325.324 L 182.031 316.860 183.887 316.250 C 189.596 314.372,194.163 314.080,198.242 315.331 M14.552 320.117 C 14.556 320.977,14.636 321.282,14.729 320.796 C 14.823 320.310,14.819 319.607,14.722 319.234 C 14.624 318.860,14.547 319.258,14.552 320.117 M120.783 321.073 C 120.876 321.706,120.808 322.135,120.632 322.027 C 120.319 321.833,120.166 319.922,120.463 319.922 C 120.547 319.922,120.690 320.440,120.783 321.073 M14.560 323.438 C 14.560 324.404,14.636 324.800,14.729 324.316 C 14.822 323.833,14.822 323.042,14.729 322.559 C 14.636 322.075,14.560 322.471,14.560 323.438 M112.176 328.203 C 112.057 332.041,112.126 332.640,112.736 333.086 C 113.384 333.560,113.373 333.594,112.575 333.594 C 111.740 333.594,111.719 333.475,111.719 328.711 C 111.719 326.025,111.852 323.828,112.015 323.828 C 112.178 323.828,112.250 325.797,112.176 328.203 M141.791 335.514 C 141.799 338.826,141.488 338.401,141.230 334.748 C 141.092 332.788,141.149 332.028,141.405 332.422 C 141.614 332.744,141.788 334.136,141.791 335.514 M124.414 333.589 L 126.367 333.958 124.219 333.779 C 123.037 333.681,120.400 333.581,118.359 333.558 C 116.207 333.534,115.059 333.401,115.625 333.243 C 116.845 332.902,121.818 333.098,124.414 333.589 M139.063 338.503 L 140.430 339.056 139.063 338.813 C 138.311 338.680,137.344 338.429,136.914 338.255 L 136.133 337.940 136.914 337.945 C 137.344 337.948,138.311 338.199,139.063 338.503 " stroke="none" fill="#051a5f" fill-rule="evenodd"></path><path id="path1" d="M259.766 25.262 C 243.331 26.439,232.057 31.120,221.071 41.326 C 185.602 74.278,201.218 135.271,247.678 145.248 C 268.877 149.800,291.482 143.781,305.273 129.912 L 309.180 125.983 303.320 125.737 C 300.098 125.602,294.938 125.469,291.854 125.441 L 286.248 125.391 281.776 127.370 C 244.758 143.757,206.650 110.952,218.595 72.980 C 232.036 30.252,292.333 29.623,306.594 72.062 L 307.704 75.365 310.200 73.194 C 313.038 70.724,316.057 69.078,319.043 68.374 C 321.404 67.818,321.329 68.032,320.310 64.733 C 313.908 44.004,292.392 27.772,268.194 25.416 C 264.037 25.011,263.433 25.000,259.766 25.262 M91.406 101.367 C 91.406 102.119,91.475 102.734,91.559 102.734 C 91.643 102.734,91.783 102.119,91.871 101.367 C 91.959 100.615,91.890 100.000,91.718 100.000 C 91.547 100.000,91.406 100.615,91.406 101.367 M96.603 100.292 C 98.925 100.361,102.616 100.361,104.806 100.291 C 106.997 100.222,105.098 100.165,100.586 100.165 C 96.074 100.166,94.282 100.223,96.603 100.292 M116.309 100.276 C 116.792 100.369,117.583 100.369,118.066 100.276 C 118.550 100.183,118.154 100.106,117.188 100.106 C 116.221 100.106,115.825 100.183,116.309 100.276 M119.922 100.241 C 122.220 100.533,125.392 100.563,125.391 100.293 C 125.391 100.132,123.940 100.026,122.168 100.059 C 120.396 100.091,119.385 100.173,119.922 100.241 M126.758 100.246 C 129.502 100.529,135.458 100.562,135.292 100.293 C 135.192 100.132,132.967 100.028,130.348 100.063 C 127.729 100.097,126.113 100.179,126.758 100.246 M134.858 103.297 C 134.801 104.462,134.914 105.514,135.109 105.635 C 135.304 105.756,135.478 104.805,135.496 103.513 C 135.537 100.594,134.998 100.411,134.858 103.297 M91.432 107.337 C 91.468 109.747,91.613 111.719,91.755 111.719 C 92.068 111.719,91.909 103.497,91.590 103.179 C 91.467 103.056,91.396 104.927,91.432 107.337 M134.943 109.147 C 134.970 110.540,135.369 110.699,135.471 109.358 C 135.520 108.723,135.416 108.203,135.242 108.203 C 135.067 108.203,134.933 108.628,134.943 109.147 M94.043 114.338 C 94.526 114.431,95.317 114.431,95.801 114.338 C 96.284 114.245,95.889 114.169,94.922 114.169 C 93.955 114.169,93.560 114.245,94.043 114.338 M97.130 114.551 C 97.230 114.712,105.431 114.807,115.355 114.763 C 125.279 114.718,131.816 114.631,129.883 114.568 C 121.469 114.297,96.965 114.284,97.130 114.551 M77.465 126.758 C 77.467 128.047,77.540 128.527,77.627 127.825 C 77.714 127.123,77.712 126.068,77.623 125.481 C 77.534 124.894,77.463 125.469,77.465 126.758 M70.895 226.367 C 70.895 279.648,70.941 301.387,70.996 274.676 C 71.051 247.964,71.051 204.370,70.996 177.801 C 70.941 151.231,70.895 173.086,70.895 226.367 M151.475 133.490 C 152.394 133.572,153.800 133.571,154.600 133.487 C 155.400 133.403,154.648 133.336,152.930 133.337 C 151.211 133.338,150.556 133.407,151.475 133.490 M132.528 137.891 C 132.528 138.857,132.604 139.253,132.698 138.770 C 132.791 138.286,132.791 137.495,132.698 137.012 C 132.604 136.528,132.528 136.924,132.528 137.891 M61.894 157.031 C 61.894 164.229,61.947 167.173,62.011 163.574 C 62.076 159.976,62.076 154.087,62.011 150.488 C 61.947 146.890,61.894 149.834,61.894 157.031 M119.697 156.836 C 119.697 161.348,119.754 163.140,119.823 160.819 C 119.892 158.497,119.892 154.806,119.822 152.615 C 119.753 150.425,119.696 152.324,119.697 156.836 M77.533 202.344 C 77.533 231.240,77.580 243.062,77.637 228.613 C 77.693 214.165,77.693 190.522,77.637 176.074 C 77.580 161.626,77.533 173.447,77.533 202.344 M164.184 165.039 C 164.186 166.328,164.259 166.808,164.346 166.106 C 164.433 165.404,164.431 164.350,164.342 163.763 C 164.252 163.176,164.181 163.750,164.184 165.039 M44.239 169.336 C 44.243 170.195,44.323 170.501,44.417 170.015 C 44.510 169.529,44.507 168.826,44.409 168.452 C 44.311 168.079,44.235 168.477,44.239 169.336 M132.534 188.086 C 132.537 189.160,132.612 189.553,132.702 188.959 C 132.792 188.366,132.790 187.487,132.697 187.006 C 132.604 186.526,132.531 187.012,132.534 188.086 M87.989 189.258 C 87.993 190.117,88.073 190.423,88.167 189.937 C 88.260 189.451,88.257 188.748,88.159 188.374 C 88.061 188.001,87.985 188.398,87.989 189.258 M61.895 203.516 C 61.895 211.143,61.947 214.263,62.011 210.449 C 62.075 206.636,62.075 200.396,62.011 196.582 C 61.947 192.769,61.895 195.889,61.895 203.516 M217.019 193.359 C 216.967 193.467,216.954 215.132,216.989 241.504 C 217.024 267.876,216.905 289.453,216.725 289.453 C 216.544 289.453,216.479 303.032,216.580 319.629 C 216.680 336.226,216.769 350.984,216.776 352.424 L 216.789 355.044 219.312 354.935 C 220.883 354.867,221.747 354.970,221.600 355.208 C 221.459 355.435,221.570 355.462,221.874 355.274 C 222.155 355.101,227.587 354.942,233.946 354.921 L 245.508 354.883 245.450 330.176 C 245.409 312.910,245.517 305.469,245.808 305.469 C 246.037 305.469,246.125 305.369,246.003 305.248 C 245.882 305.127,246.160 304.643,246.622 304.174 L 247.461 303.320 264.136 303.394 C 279.654 303.463,280.861 303.517,281.519 304.175 C 282.187 304.843,282.227 306.273,282.227 329.883 L 282.227 354.883 298.188 354.985 L 314.149 355.087 313.928 326.188 C 313.790 308.018,313.846 297.204,314.080 297.059 C 314.285 296.933,314.436 295.038,314.414 292.848 C 314.389 290.252,314.266 289.207,314.063 289.844 C 313.806 290.645,313.748 290.504,313.738 289.063 C 313.730 287.743,313.811 287.500,314.063 288.086 C 314.273 288.576,314.391 287.123,314.379 284.180 C 314.368 281.350,314.247 279.957,314.074 280.664 C 313.917 281.309,313.806 261.885,313.828 237.500 L 313.867 193.164 265.490 193.164 C 238.882 193.164,217.070 193.252,217.019 193.359 M321.582 193.244 L 320.703 193.414 320.703 274.051 L 320.703 354.688 336.523 354.688 L 352.344 354.688 352.338 319.043 C 352.335 299.438,352.379 263.052,352.436 238.184 L 352.539 192.969 337.500 193.022 C 329.229 193.051,322.065 193.151,321.582 193.244 M163.811 201.367 C 163.809 203.301,163.875 204.141,163.957 203.234 C 164.039 202.328,164.040 200.746,163.959 199.719 C 163.879 198.692,163.812 199.434,163.811 201.367 M299.397 204.715 C 299.302 204.870,299.495 205.101,299.827 205.228 C 300.224 205.380,300.347 205.294,300.187 204.976 C 300.052 204.710,300.231 204.844,300.585 205.273 C 300.938 205.703,301.434 205.996,301.688 205.924 C 301.941 205.853,302.019 205.923,301.862 206.081 C 301.704 206.239,301.880 206.618,302.252 206.924 C 302.656 207.255,302.693 207.359,302.344 207.181 C 301.878 206.943,301.848 206.997,302.196 207.445 C 302.438 207.754,302.638 209.238,302.641 210.742 C 302.646 212.914,302.587 213.195,302.352 212.109 C 302.189 211.357,302.067 216.104,302.080 222.656 C 302.095 229.830,302.200 233.016,302.344 230.664 C 302.568 227.009,302.588 227.168,302.659 233.129 C 302.715 237.909,302.620 239.429,302.277 239.217 C 301.981 239.034,301.899 239.138,302.043 239.515 C 302.171 239.848,301.943 240.296,301.508 240.568 C 301.092 240.828,300.845 241.193,300.959 241.378 C 301.256 241.858,300.239 242.170,299.159 241.932 C 298.458 241.777,298.376 241.823,298.808 242.127 C 299.198 242.401,296.714 242.510,290.800 242.478 C 283.478 242.439,282.911 242.397,286.914 242.193 C 291.198 241.975,290.913 241.948,283.594 241.881 C 278.307 241.834,275.785 241.938,276.172 242.188 C 276.605 242.467,276.623 242.568,276.242 242.572 C 275.958 242.575,275.469 242.322,275.156 242.009 C 274.843 241.696,274.299 241.550,273.948 241.685 C 273.575 241.828,273.409 241.769,273.548 241.544 C 273.679 241.332,273.454 240.918,273.047 240.625 C 272.640 240.332,272.396 239.948,272.505 239.773 C 272.614 239.597,272.522 239.453,272.301 239.453 C 272.080 239.453,272.012 239.161,272.149 238.803 C 272.306 238.394,272.243 238.249,271.981 238.411 C 271.688 238.592,271.571 234.804,271.588 225.682 C 271.602 218.499,271.727 214.092,271.868 215.820 C 272.089 218.533,272.132 218.170,272.194 213.075 C 272.246 208.810,272.413 206.994,272.805 206.435 C 273.102 206.011,273.410 205.489,273.489 205.276 C 273.568 205.063,273.870 204.943,274.160 205.009 C 274.454 205.077,274.573 204.944,274.429 204.711 C 274.246 204.415,277.908 204.313,286.870 204.363 C 293.856 204.402,299.493 204.560,299.397 204.715 M255.469 205.149 C 255.469 205.350,255.645 205.406,255.859 205.273 C 256.074 205.141,256.250 205.229,256.250 205.469 C 256.250 205.709,256.430 205.794,256.650 205.658 C 256.870 205.522,257.016 205.556,256.973 205.733 C 256.835 206.304,257.916 208.185,258.260 207.973 C 258.545 207.797,258.780 208.949,258.644 209.852 C 258.621 210.006,258.594 216.912,258.584 225.198 C 258.573 234.781,258.430 240.179,258.190 240.031 C 257.854 239.823,257.624 240.659,257.776 241.533 C 257.807 241.710,257.652 241.744,257.432 241.608 C 257.211 241.471,257.031 241.557,257.031 241.797 C 257.031 242.037,256.855 242.125,256.641 241.992 C 256.426 241.859,256.249 241.893,256.249 242.067 C 256.248 242.241,254.446 242.411,252.245 242.446 C 249.855 242.483,248.714 242.392,249.414 242.220 C 250.059 242.062,246.063 241.967,240.535 242.009 C 234.906 242.053,230.577 241.937,230.695 241.746 C 230.883 241.442,230.347 241.247,229.612 241.353 C 229.033 241.436,227.737 239.294,227.781 238.326 C 227.826 237.325,227.833 237.328,228.147 238.477 C 228.323 239.121,228.414 232.402,228.349 223.545 C 228.284 214.688,228.365 207.524,228.528 207.625 C 228.691 207.726,228.929 207.536,229.056 207.204 C 229.212 206.798,229.129 206.691,228.804 206.877 C 228.538 207.030,228.760 206.719,229.297 206.188 C 229.834 205.656,230.405 205.287,230.566 205.368 C 230.728 205.449,230.859 205.373,230.859 205.199 C 230.859 205.025,236.397 204.860,243.164 204.833 C 250.597 204.802,255.469 204.927,255.469 205.149 M163.789 207.031 C 163.789 208.213,163.862 208.696,163.952 208.105 C 164.041 207.515,164.041 206.548,163.952 205.957 C 163.862 205.366,163.789 205.850,163.789 207.031 M271.769 211.222 C 271.685 212.032,271.614 211.465,271.613 209.961 C 271.611 208.457,271.680 207.794,271.766 208.487 C 271.853 209.181,271.854 210.411,271.769 211.222 M132.513 209.766 C 132.513 210.518,132.593 210.825,132.691 210.449 C 132.789 210.073,132.789 209.458,132.691 209.082 C 132.593 208.706,132.513 209.014,132.513 209.766 M344.744 213.849 L 345.703 214.808 345.765 225.861 C 345.839 239.123,345.907 238.249,344.707 239.453 C 343.257 240.909,329.958 241.223,328.701 239.831 C 327.628 238.645,327.735 214.217,328.817 213.379 C 330.173 212.327,343.619 212.724,344.744 213.849 M302.619 216.113 C 302.526 216.597,302.450 216.201,302.450 215.234 C 302.450 214.268,302.526 213.872,302.619 214.355 C 302.713 214.839,302.713 215.630,302.619 216.113 M99.536 219.433 C 102.826 219.498,108.099 219.498,111.255 219.433 C 114.410 219.367,111.719 219.314,105.273 219.314 C 98.828 219.314,96.246 219.368,99.536 219.433 M136.041 219.421 C 136.634 219.511,137.513 219.508,137.994 219.416 C 138.474 219.323,137.988 219.249,136.914 219.252 C 135.840 219.255,135.447 219.331,136.041 219.421 M151.270 219.431 C 152.935 219.504,155.659 219.504,157.324 219.431 C 158.989 219.358,157.627 219.298,154.297 219.298 C 150.967 219.298,149.604 219.358,151.270 219.431 M302.629 224.328 C 302.547 225.235,302.481 224.395,302.482 222.461 C 302.484 220.527,302.551 219.786,302.631 220.813 C 302.712 221.840,302.711 223.422,302.629 224.328 M228.017 234.466 C 227.931 235.168,227.858 234.687,227.855 233.398 C 227.853 232.109,227.924 231.535,228.013 232.122 C 228.103 232.709,228.104 233.764,228.017 234.466 M93.663 233.490 C 94.581 233.572,95.988 233.571,96.788 233.487 C 97.588 233.403,96.836 233.336,95.117 233.337 C 93.398 233.338,92.744 233.407,93.663 233.490 M61.893 251.172 C 61.893 258.154,61.946 261.011,62.011 257.520 C 62.076 254.028,62.076 248.315,62.011 244.824 C 61.946 241.333,61.893 244.189,61.893 251.172 M163.842 252.148 C 163.842 257.734,163.897 259.965,163.964 257.106 C 164.031 254.246,164.031 249.676,163.964 246.950 C 163.897 244.223,163.842 246.563,163.842 252.148 M279.943 255.166 C 279.695 255.322,284.019 255.410,289.551 255.361 C 295.451 255.310,299.610 255.421,299.610 255.632 C 299.609 255.828,299.717 255.882,299.848 255.751 C 300.141 255.458,301.953 257.553,301.953 258.185 C 301.953 258.435,302.159 258.513,302.410 258.357 C 302.716 258.169,302.786 258.286,302.623 258.712 C 302.488 259.063,302.549 259.456,302.758 259.585 C 302.967 259.714,303.048 259.964,302.939 260.141 C 302.830 260.317,302.721 267.250,302.696 275.546 C 302.672 283.842,302.497 290.726,302.307 290.843 C 302.117 290.960,302.051 290.739,302.159 290.352 C 302.267 289.965,302.088 290.220,301.762 290.918 C 301.436 291.616,301.072 292.188,300.952 292.188 C 300.833 292.188,300.843 292.014,300.974 291.801 C 301.110 291.580,300.954 291.514,300.608 291.647 C 300.276 291.774,300.090 292.018,300.195 292.188 C 300.300 292.357,300.114 292.601,299.782 292.728 C 299.436 292.861,299.280 292.795,299.417 292.574 C 299.548 292.361,299.469 292.188,299.242 292.188 C 299.014 292.188,298.828 292.319,298.828 292.480 C 298.828 292.642,296.674 292.786,294.043 292.802 C 290.918 292.820,289.868 292.736,291.016 292.558 C 291.982 292.409,288.411 292.281,283.079 292.275 C 277.747 292.270,273.270 292.150,273.130 292.010 C 272.990 291.870,273.222 291.863,273.645 291.994 C 274.068 292.126,273.762 291.871,272.966 291.428 L 271.517 290.623 271.566 276.073 C 271.595 267.678,271.733 262.680,271.894 264.258 C 272.127 266.554,272.164 266.231,272.121 262.244 C 272.093 259.633,272.202 257.578,272.363 257.677 C 272.633 257.844,272.813 257.243,272.703 256.543 C 272.677 256.382,272.788 256.277,272.949 256.311 C 273.536 256.433,275.881 255.176,275.378 255.009 C 275.095 254.915,276.108 254.848,277.628 254.860 C 279.149 254.873,280.191 255.010,279.943 255.166 M293.262 254.979 C 290.952 255.048,287.173 255.048,284.863 254.979 C 282.554 254.910,284.443 254.853,289.063 254.853 C 293.682 254.853,295.571 254.910,293.262 254.979 M254.604 255.494 C 255.753 255.496,256.193 255.636,256.005 255.940 C 255.827 256.227,255.950 256.299,256.353 256.144 C 257.136 255.844,258.050 256.904,257.878 257.915 C 257.793 258.418,257.905 258.583,258.205 258.397 C 258.551 258.183,258.606 261.941,258.433 274.002 C 258.285 284.392,258.339 289.806,258.591 289.650 C 258.811 289.514,258.876 289.672,258.743 290.019 C 258.615 290.352,258.324 290.625,258.096 290.625 C 257.869 290.625,257.785 290.728,257.910 290.853 C 258.207 291.149,256.926 292.503,256.543 292.298 C 256.382 292.212,256.249 292.284,256.249 292.457 C 256.248 292.631,254.314 292.773,251.952 292.773 C 249.589 292.773,247.656 292.638,247.656 292.473 C 247.656 292.307,243.921 292.219,239.355 292.277 C 232.375 292.366,230.972 292.290,230.537 291.797 C 230.078 291.276,230.047 291.276,230.259 291.797 C 230.390 292.119,230.272 292.047,229.995 291.636 C 229.718 291.225,229.229 290.609,228.906 290.267 C 228.410 289.739,228.301 287.229,228.194 273.826 C 228.098 261.776,228.176 258.147,228.521 258.594 C 228.898 259.081,228.943 259.036,228.788 258.326 C 228.674 257.803,228.822 257.388,229.169 257.255 C 229.482 257.135,229.611 256.833,229.457 256.583 C 229.290 256.314,229.346 256.234,229.594 256.387 C 229.823 256.529,230.079 256.442,230.162 256.192 C 230.269 255.871,231.941 255.765,235.899 255.826 C 238.972 255.874,241.396 255.769,241.288 255.593 C 241.179 255.417,243.754 255.322,247.010 255.382 C 250.266 255.442,253.683 255.493,254.604 255.494 M344.223 255.611 C 345.558 256.625,345.703 258.107,345.703 270.715 L 345.703 283.176 344.824 283.668 C 343.603 284.351,331.615 284.621,330.112 283.998 C 328.220 283.215,328.125 282.524,328.125 269.566 C 328.125 255.050,327.958 255.586,332.535 255.368 C 339.630 255.029,343.565 255.111,344.223 255.611 M77.524 275.391 C 77.524 285.166,77.574 289.165,77.636 284.277 C 77.698 279.390,77.698 271.392,77.636 266.504 C 77.574 261.616,77.524 265.615,77.524 275.391 M44.258 262.891 C 44.258 264.072,44.331 264.556,44.420 263.965 C 44.510 263.374,44.510 262.407,44.420 261.816 C 44.331 261.226,44.258 261.709,44.258 262.891 M132.534 262.695 C 132.537 263.770,132.612 264.163,132.702 263.569 C 132.792 262.975,132.790 262.096,132.697 261.616 C 132.604 261.135,132.531 261.621,132.534 262.695 M302.117 273.242 C 302.117 277.539,302.174 279.350,302.244 277.267 C 302.314 275.184,302.314 271.668,302.245 269.454 C 302.175 267.241,302.118 268.945,302.117 273.242 M110.645 269.818 C 111.665 269.899,113.335 269.899,114.355 269.818 C 115.376 269.738,114.541 269.672,112.500 269.672 C 110.459 269.672,109.624 269.738,110.645 269.818 M155.762 269.819 C 156.890 269.898,158.735 269.898,159.863 269.819 C 160.991 269.740,160.068 269.676,157.813 269.676 C 155.557 269.676,154.634 269.740,155.762 269.819 M258.869 285.645 C 258.776 286.128,258.700 285.732,258.700 284.766 C 258.700 283.799,258.776 283.403,258.869 283.887 C 258.963 284.370,258.963 285.161,258.869 285.645 M57.129 285.816 C 57.505 285.914,58.120 285.914,58.496 285.816 C 58.872 285.718,58.564 285.638,57.813 285.638 C 57.061 285.638,56.753 285.718,57.129 285.816 M61.886 299.414 C 61.887 304.355,61.943 306.323,62.011 303.787 C 62.079 301.250,62.079 297.207,62.010 294.802 C 61.942 292.397,61.886 294.473,61.886 299.414 M112.102 291.699 C 112.098 292.290,111.989 295.586,111.860 299.023 C 111.731 302.461,111.755 305.149,111.915 304.998 C 112.168 304.757,112.317 301.563,112.461 293.273 L 112.500 291.038 117.676 290.917 L 122.852 290.796 117.480 290.710 L 112.109 290.625 112.102 291.699 M125.916 291.113 C 125.816 291.274,129.253 291.406,133.553 291.406 L 141.371 291.406 141.507 294.043 L 141.644 296.680 141.720 293.863 L 141.797 291.047 133.947 290.934 C 129.629 290.871,126.015 290.952,125.916 291.113 M313.948 293.843 C 313.855 294.329,313.775 294.023,313.770 293.164 C 313.766 292.305,313.842 291.907,313.940 292.281 C 314.038 292.654,314.042 293.357,313.948 293.843 M234.668 292.858 C 234.077 292.947,233.110 292.947,232.520 292.858 C 231.929 292.768,232.412 292.695,233.594 292.695 C 234.775 292.695,235.259 292.768,234.668 292.858 M245.605 292.847 C 245.229 292.946,244.614 292.946,244.238 292.847 C 243.862 292.749,244.170 292.669,244.922 292.669 C 245.674 292.669,245.981 292.749,245.605 292.847 M283.105 292.847 C 282.729 292.946,282.114 292.946,281.738 292.847 C 281.362 292.749,281.670 292.669,282.422 292.669 C 283.174 292.669,283.481 292.749,283.105 292.847 M254.590 293.238 C 254.214 293.336,253.599 293.336,253.223 293.238 C 252.847 293.140,253.154 293.059,253.906 293.059 C 254.658 293.059,254.966 293.140,254.590 293.238 M77.525 312.305 C 77.525 322.832,77.575 327.083,77.636 321.750 C 77.698 316.418,77.698 307.805,77.636 302.610 C 77.575 297.415,77.525 301.777,77.525 312.305 M141.566 303.320 C 141.566 306.973,141.624 308.519,141.697 306.757 C 141.769 304.996,141.769 302.007,141.697 300.117 C 141.626 298.226,141.567 299.668,141.566 303.320 M44.275 309.180 C 44.276 310.898,44.345 311.553,44.427 310.634 C 44.510 309.715,44.509 308.309,44.425 307.509 C 44.341 306.709,44.273 307.461,44.275 309.180 M111.719 308.464 C 111.719 309.251,111.849 309.766,112.007 309.607 C 112.417 309.197,112.456 307.031,112.054 307.031 C 111.869 307.031,111.719 307.676,111.719 308.464 M282.704 310.645 C 282.618 311.343,282.547 310.771,282.547 309.375 C 282.547 307.979,282.618 307.407,282.704 308.105 C 282.791 308.804,282.791 309.946,282.704 310.645 M111.877 316.992 C 111.877 320.430,111.937 321.784,112.010 320.001 C 112.082 318.218,112.082 315.406,112.009 313.751 C 111.936 312.096,111.876 313.555,111.877 316.992 M141.538 314.453 C 141.538 316.064,141.607 316.724,141.691 315.918 C 141.775 315.112,141.775 313.794,141.691 312.988 C 141.607 312.183,141.538 312.842,141.538 314.453 M141.473 320.117 C 141.221 326.722,141.230 328.458,141.516 328.172 C 141.683 328.004,141.766 325.508,141.699 322.625 C 141.632 319.742,141.530 318.613,141.473 320.117 M111.719 328.427 C 111.719 331.029,111.851 333.239,112.012 333.338 C 112.355 333.551,112.295 324.274,111.951 323.930 C 111.823 323.803,111.719 325.826,111.719 328.427 M141.169 330.262 C 141.310 331.225,141.797 331.436,141.797 330.534 C 141.797 330.068,141.637 329.688,141.441 329.688 C 141.245 329.688,141.123 329.946,141.169 330.262 M115.730 333.266 C 115.350 333.416,116.958 333.551,119.303 333.566 C 121.649 333.581,123.487 333.513,123.388 333.414 C 123.080 333.106,116.457 332.978,115.730 333.266 M141.248 335.024 C 141.458 338.046,141.797 338.168,141.797 335.221 C 141.797 333.896,141.639 332.813,141.446 332.813 C 141.252 332.813,141.164 333.808,141.248 335.024 M138.477 338.672 C 138.906 338.857,139.521 339.008,139.844 339.008 C 140.213 339.008,140.141 338.883,139.648 338.672 C 139.219 338.487,138.604 338.336,138.281 338.336 C 137.912 338.336,137.984 338.460,138.477 338.672 " stroke="none" fill="#e65a29" fill-rule="evenodd"></path><path id="path2" d="M110.352 25.281 C 101.156 26.434,93.043 33.978,90.634 43.615 C 89.522 48.068,88.665 48.486,85.131 46.305 C 76.760 41.138,66.812 46.876,64.843 58.008 C 63.937 63.129,63.269 63.804,58.694 64.219 C 53.534 64.687,50.624 67.095,49.794 71.582 L 49.522 73.047 106.802 73.047 L 164.082 73.047 164.552 71.973 C 165.429 69.970,165.167 62.218,164.147 59.992 C 160.641 52.340,151.798 47.998,144.642 50.415 C 139.390 52.188,138.803 51.748,137.142 44.790 C 134.037 31.783,122.941 23.703,110.352 25.281 M171.974 67.383 C 171.978 68.242,172.058 68.548,172.151 68.062 C 172.245 67.576,172.241 66.873,172.143 66.499 C 172.046 66.126,171.969 66.523,171.974 67.383 M345.296 75.098 C 346.254 76.118,347.089 76.953,347.152 76.953 C 347.445 76.953,347.135 76.602,345.410 74.984 L 343.555 73.242 345.296 75.098 M321.335 74.653 C 313.183 76.567,306.894 84.096,306.240 92.724 C 305.886 97.400,305.721 97.896,304.269 98.647 C 302.655 99.482,302.035 99.370,299.820 97.845 C 289.559 90.778,274.215 105.044,280.754 115.571 C 282.861 118.962,278.934 118.690,328.259 118.855 C 377.789 119.020,372.707 119.380,374.821 115.563 C 381.227 103.999,363.424 90.474,353.313 99.225 C 349.483 102.540,348.469 101.671,347.506 94.248 C 345.627 79.763,334.633 71.531,321.335 74.653 M79.199 79.583 C 80.112 79.665,81.606 79.665,82.520 79.583 C 83.433 79.501,82.686 79.433,80.859 79.433 C 79.033 79.433,78.286 79.501,79.199 79.583 M88.379 93.238 C 88.755 93.336,89.370 93.336,89.746 93.238 C 90.122 93.140,89.814 93.059,89.063 93.059 C 88.311 93.059,88.003 93.140,88.379 93.238 M103.032 93.636 C 103.518 93.729,104.221 93.726,104.594 93.628 C 104.968 93.530,104.570 93.454,103.711 93.458 C 102.852 93.462,102.546 93.542,103.032 93.636 M106.938 93.636 C 107.424 93.729,108.127 93.726,108.501 93.628 C 108.874 93.530,108.477 93.454,107.617 93.458 C 106.758 93.462,106.452 93.542,106.938 93.636 M84.926 106.641 C 84.926 110.400,84.985 111.938,85.056 110.059 C 85.128 108.179,85.128 105.103,85.056 103.223 C 84.985 101.343,84.926 102.881,84.926 106.641 M357.520 125.682 C 359.614 125.752,363.042 125.752,365.137 125.682 C 367.231 125.612,365.518 125.554,361.328 125.554 C 357.139 125.554,355.425 125.612,357.520 125.682 M95.290 139.857 C 94.754 140.189,94.633 162.732,95.165 163.264 C 95.515 163.614,112.797 163.504,113.151 163.149 C 113.441 162.858,113.492 140.303,113.203 140.034 C 112.887 139.741,95.752 139.572,95.290 139.857 M139.355 139.738 C 138.450 139.954,138.283 163.048,139.185 163.395 C 139.467 163.503,143.818 163.566,148.853 163.534 L 158.008 163.477 158.090 151.660 L 158.172 139.844 156.332 139.794 C 150.398 139.634,139.938 139.599,139.355 139.738 M51.563 149.568 L 50.586 149.839 50.481 158.929 L 50.376 168.019 52.239 167.773 C 53.263 167.638,54.585 167.437,55.176 167.327 L 56.250 167.125 56.250 158.172 L 56.250 149.219 54.395 149.258 C 53.374 149.279,52.100 149.419,51.563 149.568 M313.595 168.260 C 315.809 168.330,319.324 168.330,321.407 168.260 C 323.491 168.190,321.680 168.133,317.383 168.133 C 313.086 168.133,311.381 168.191,313.595 168.260 M222.305 174.601 C 220.224 174.776,219.687 174.974,219.097 175.785 C 218.708 176.320,216.790 178.930,214.835 181.585 C 212.881 184.240,211.336 186.440,211.403 186.474 C 211.469 186.508,225.850 186.434,243.359 186.311 C 260.869 186.187,290.181 186.097,308.496 186.110 C 326.812 186.122,341.797 186.082,341.797 186.021 C 341.797 185.959,339.204 184.215,336.035 182.144 C 332.866 180.074,329.046 177.487,327.545 176.397 L 324.817 174.414 274.811 174.402 C 247.307 174.396,223.680 174.486,222.305 174.601 M94.922 201.563 L 94.922 213.281 104.057 213.281 L 113.193 213.281 113.366 212.098 C 113.462 211.447,113.516 209.909,113.487 208.680 C 113.458 207.451,113.400 202.710,113.358 198.145 L 113.281 189.844 104.102 189.844 L 94.922 189.844 94.922 201.563 M138.672 201.349 L 138.672 212.855 139.941 213.085 C 140.640 213.211,144.990 213.263,149.609 213.200 L 158.008 213.086 158.077 204.688 C 158.115 200.068,158.047 194.839,157.926 193.066 L 157.705 189.844 148.188 189.844 L 138.672 189.844 138.672 201.349 M51.855 195.392 L 50.391 195.781 50.391 205.562 L 50.391 215.343 52.441 215.097 C 53.569 214.961,54.888 214.849,55.371 214.847 L 56.250 214.844 56.250 204.883 L 56.250 194.922 54.785 194.962 C 53.979 194.984,52.661 195.178,51.855 195.392 M359.116 198.438 C 359.116 200.049,359.185 200.708,359.269 199.902 C 359.353 199.097,359.353 197.778,359.269 196.973 C 359.185 196.167,359.116 196.826,359.116 198.438 M210.268 198.633 C 210.271 199.707,210.347 200.100,210.437 199.506 C 210.526 198.913,210.524 198.034,210.431 197.553 C 210.339 197.073,210.265 197.559,210.268 198.633 M359.121 207.813 C 359.121 209.639,359.188 210.386,359.270 209.473 C 359.353 208.560,359.353 207.065,359.270 206.152 C 359.188 205.239,359.121 205.986,359.121 207.813 M235.402 212.555 C 234.929 216.590,234.790 219.401,234.681 227.148 L 234.570 234.961 239.648 235.247 C 242.441 235.404,246.265 235.637,248.145 235.764 C 251.269 235.975,251.565 235.934,251.594 235.283 C 251.712 232.585,251.466 211.102,251.315 210.951 C 251.212 210.847,247.644 210.695,243.387 210.612 L 235.648 210.462 235.402 212.555 M278.516 222.734 L 278.516 235.043 281.152 235.292 C 282.603 235.429,286.558 235.543,289.941 235.544 L 296.094 235.547 296.094 223.242 L 296.094 210.938 295.215 210.936 C 294.731 210.935,290.776 210.819,286.426 210.679 L 278.516 210.424 278.516 222.734 M334.621 219.629 C 334.492 220.112,334.383 223.804,334.380 227.832 L 334.375 235.156 336.677 235.156 C 338.416 235.156,339.037 235.005,339.216 234.538 C 339.516 233.757,339.519 221.574,339.219 220.458 C 338.755 218.729,335.042 218.059,334.621 219.629 M210.281 225.391 C 210.281 226.787,210.352 227.358,210.439 226.660 C 210.525 225.962,210.525 224.819,210.439 224.121 C 210.352 223.423,210.281 223.994,210.281 225.391 M195.108 237.726 C 193.394 238.710,190.938 240.047,189.648 240.697 C 188.359 241.347,186.123 242.601,184.678 243.484 L 182.052 245.089 182.039 264.741 L 182.025 284.392 196.091 284.365 L 210.156 284.338 210.156 260.764 L 210.156 237.191 206.738 236.563 C 200.685 235.452,198.727 235.648,195.108 237.726 M94.801 241.887 C 94.674 243.234,94.635 245.918,94.714 247.852 C 94.792 249.785,94.871 253.960,94.889 257.129 L 94.922 262.891 104.064 262.891 L 113.206 262.891 113.341 257.520 C 113.416 254.565,113.389 249.336,113.281 245.898 L 113.086 239.648 104.059 239.544 L 95.031 239.439 94.801 241.887 M138.764 251.022 L 138.867 262.695 148.557 262.800 L 158.246 262.904 158.166 251.557 C 158.117 244.488,157.940 240.118,157.696 239.967 C 157.481 239.834,153.110 239.641,147.982 239.537 L 138.660 239.349 138.764 251.022 M52.734 243.325 L 50.586 243.555 50.481 253.027 L 50.377 262.500 52.695 262.500 C 56.536 262.500,56.250 263.286,56.250 252.734 C 56.250 243.768,56.013 242.001,54.949 243.032 C 54.912 243.067,53.916 243.199,52.734 243.325 M359.083 255.273 C 359.087 256.133,359.167 256.438,359.261 255.952 C 359.354 255.467,359.351 254.763,359.253 254.390 C 359.155 254.017,359.079 254.414,359.083 255.273 M29.846 265.430 C 29.846 268.867,29.906 270.221,29.978 268.438 C 30.051 266.656,30.051 263.843,29.978 262.188 C 29.904 260.534,29.845 261.992,29.846 265.430 M368.684 260.938 C 359.062 262.609,358.995 262.711,358.989 275.684 L 358.984 284.375 371.680 284.375 L 384.375 284.375 384.416 282.715 C 384.511 278.848,384.322 267.335,384.155 266.797 C 383.986 266.253,382.228 264.812,379.750 263.185 C 377.082 261.434,371.892 260.380,368.684 260.938 M278.716 261.369 C 278.599 261.673,278.550 267.282,278.607 273.832 L 278.711 285.742 280.859 285.862 C 282.041 285.928,283.175 286.148,283.379 286.351 C 283.583 286.553,286.527 286.719,289.922 286.719 L 296.094 286.719 296.094 274.023 L 296.094 261.328 295.020 261.324 C 294.429 261.322,290.566 261.207,286.437 261.069 C 280.155 260.857,278.894 260.907,278.716 261.369 M235.231 265.273 C 234.973 267.508,234.762 273.046,234.763 277.580 L 234.766 285.825 237.402 286.074 C 238.853 286.211,242.676 286.324,245.898 286.326 L 251.758 286.329 251.626 274.121 C 251.554 267.407,251.445 261.864,251.385 261.803 C 251.324 261.742,247.771 261.583,243.488 261.451 L 235.701 261.210 235.231 265.273 M336.281 261.642 C 334.505 261.790,334.375 262.490,334.375 271.930 L 334.375 278.516 336.426 278.510 C 339.620 278.500,339.483 278.909,339.364 269.731 C 339.245 260.608,339.535 261.370,336.281 261.642 M384.492 264.453 C 384.492 265.635,384.565 266.118,384.655 265.527 C 384.744 264.937,384.744 263.970,384.655 263.379 C 384.565 262.788,384.492 263.271,384.492 264.453 M383.789 290.621 C 383.359 290.777,377.657 291.027,371.117 291.178 C 364.576 291.329,359.083 291.541,358.909 291.648 C 358.511 291.894,358.489 308.984,358.887 308.984 C 359.048 308.984,360.146 308.610,361.328 308.154 C 365.829 306.414,373.605 306.941,381.641 309.531 L 384.570 310.475 384.679 305.433 C 384.916 294.474,384.666 290.305,383.789 290.621 M123.047 290.907 C 121.614 291.164,121.252 291.696,122.649 291.491 C 123.303 291.395,123.934 291.161,124.051 290.971 C 124.169 290.781,124.211 290.649,124.144 290.678 C 124.078 290.707,123.584 290.810,123.047 290.907 M14.453 301.074 C 14.453 306.499,14.550 310.938,14.668 310.938 C 14.786 310.938,15.445 310.647,16.131 310.292 C 18.533 309.050,27.280 309.107,30.614 310.386 C 31.191 310.608,31.250 309.754,31.250 301.201 C 31.250 294.007,31.134 291.733,30.762 291.607 C 30.493 291.516,26.714 291.390,22.363 291.326 L 14.453 291.211 14.453 301.074 M192.188 291.406 L 181.836 291.602 181.731 300.646 L 181.626 309.691 184.466 308.935 C 186.027 308.519,189.238 308.077,191.602 307.953 L 195.898 307.727 201.953 309.673 C 205.283 310.744,208.491 311.733,209.082 311.872 L 210.156 312.124 210.156 301.544 L 210.156 290.963 206.348 291.087 C 204.253 291.155,197.881 291.299,192.188 291.406 M51.465 292.858 L 50.391 293.021 50.391 301.198 L 50.391 309.375 52.441 309.370 C 56.557 309.359,56.250 310.056,56.250 300.736 L 56.250 292.578 54.395 292.637 C 53.374 292.669,52.056 292.768,51.465 292.858 M112.098 296.506 C 111.861 296.948,111.726 297.483,111.797 297.695 C 111.867 297.907,112.127 297.546,112.374 296.892 C 112.887 295.532,112.734 295.318,112.098 296.506 M252.252 309.596 C 252.195 309.654,252.195 319.910,252.252 332.389 L 252.356 355.078 263.655 355.078 C 270.016 355.078,275.050 354.923,275.173 354.723 C 275.332 354.467,275.514 319.223,275.400 310.817 C 275.395 310.428,275.221 310.215,275.015 310.342 C 274.808 310.470,273.533 310.401,272.183 310.187 C 270.020 309.846,252.522 309.327,252.252 309.596 M364.063 314.082 C 363.311 314.299,361.948 314.749,361.035 315.083 L 359.375 315.690 359.376 324.544 L 359.378 333.398 366.505 333.458 C 373.518 333.517,373.723 333.542,379.199 335.059 L 384.766 336.600 384.766 326.698 C 384.766 317.130,384.740 316.797,384.001 316.797 C 383.581 316.797,380.812 316.175,377.849 315.414 C 372.067 313.931,366.468 313.390,364.063 314.082 M188.086 315.056 C 186.797 315.377,184.907 315.914,183.887 316.250 L 182.031 316.860 182.031 325.324 L 182.031 333.789 189.941 333.793 C 198.281 333.798,202.103 334.303,206.297 335.956 C 210.574 337.642,210.534 337.725,210.542 326.903 C 210.548 317.476,211.110 318.459,204.883 317.016 C 202.305 316.419,199.316 315.661,198.242 315.331 C 195.477 314.483,190.888 314.359,188.086 315.056 M17.626 316.356 L 14.745 317.012 14.656 327.451 L 14.567 337.891 15.407 337.891 C 15.868 337.891,19.314 337.034,23.064 335.988 L 29.883 334.085 29.958 326.000 C 30.029 318.272,29.929 316.750,29.357 316.880 C 29.217 316.912,28.147 316.643,26.980 316.282 C 24.368 315.473,21.403 315.497,17.626 316.356 M120.313 320.875 C 120.313 321.400,120.456 321.918,120.632 322.027 C 120.808 322.135,120.876 321.706,120.783 321.073 C 120.579 319.677,120.313 319.565,120.313 320.875 M361.230 339.714 L 359.375 339.887 359.375 347.385 L 359.375 354.883 369.043 354.837 C 374.360 354.813,380.073 354.900,381.738 355.033 L 384.766 355.273 384.766 348.962 L 384.766 342.651 382.715 342.385 C 381.587 342.238,378.555 341.592,375.977 340.949 C 371.275 339.777,365.627 339.304,361.230 339.714 M111.197 340.636 C 107.029 341.294,103.771 342.274,97.266 344.826 C 80.580 351.372,72.843 351.318,56.890 344.544 C 45.956 339.901,35.363 339.475,22.266 343.152 C 19.580 343.906,16.724 344.525,15.918 344.527 L 14.453 344.531 14.453 354.134 C 14.453 359.416,14.586 363.678,14.748 363.607 C 14.910 363.535,17.063 362.479,19.533 361.259 C 34.209 354.010,44.347 354.170,61.133 361.915 C 75.862 368.711,81.991 368.676,96.484 361.715 C 106.331 356.986,108.314 356.490,117.383 356.490 C 126.487 356.490,128.350 356.965,138.672 361.909 C 151.727 368.163,160.191 368.015,171.875 361.328 C 179.772 356.809,182.891 356.165,198.242 355.885 L 210.352 355.664 210.352 349.627 L 210.352 343.591 207.227 342.953 C 205.508 342.602,202.695 341.917,200.977 341.432 C 192.169 338.944,182.329 340.256,172.404 345.241 C 161.398 350.769,148.788 351.075,137.500 346.089 C 126.453 341.209,118.288 339.517,111.197 340.636 M295.020 361.622 L 206.250 361.720 206.250 372.852 L 206.250 383.984 291.429 383.984 C 355.068 383.984,377.065 383.869,378.418 383.528 C 380.954 382.890,383.357 380.426,384.169 377.632 C 384.881 375.185,384.890 361.614,384.180 361.556 C 383.965 361.538,343.843 361.568,295.020 361.622 M35.081 362.517 C 31.080 362.983,27.295 364.333,21.146 367.485 C 18.060 369.067,15.291 370.268,14.994 370.154 C 14.306 369.890,14.238 374.191,14.889 376.777 C 15.475 379.103,17.820 381.692,20.395 382.856 L 22.461 383.789 111.035 383.890 L 199.609 383.991 199.609 373.007 L 199.609 362.022 192.676 362.203 C 184.016 362.429,180.623 363.428,172.461 368.154 C 161.522 374.487,149.160 374.058,133.376 366.797 C 119.275 360.311,114.107 360.455,98.303 367.778 C 81.795 375.427,74.417 375.389,57.227 367.563 C 49.724 364.148,46.723 363.128,42.402 362.527 C 39.120 362.071,38.908 362.071,35.081 362.517 " stroke="none" fill="#1dbdb5" fill-rule="evenodd"></path><path id="path3" d="M255.664 47.252 C 233.323 51.279,218.976 72.899,223.641 95.508 C 228.216 117.684,254.842 131.941,275.479 123.265 L 276.935 122.653 275.772 120.995 C 269.252 111.694,273.583 96.931,284.375 91.670 C 289.356 89.243,296.176 88.304,299.272 89.621 C 299.788 89.841,300.004 89.500,300.401 87.846 C 300.672 86.719,301.297 84.802,301.792 83.585 C 304.513 76.888,295.225 60.198,285.151 53.681 C 275.744 47.596,265.795 45.427,255.664 47.252 M77.915 122.166 C 77.753 122.758,77.653 161.475,77.692 208.203 C 77.732 254.932,77.758 304.370,77.749 318.066 L 77.734 342.969 79.271 342.969 C 81.976 342.969,86.284 341.843,92.144 339.606 C 95.283 338.407,99.478 336.878,101.465 336.206 L 105.078 334.986 105.078 310.639 L 105.078 286.293 106.037 285.334 L 106.996 284.375 126.875 284.375 C 145.637 284.375,146.790 284.415,147.400 285.089 C 147.989 285.740,148.047 288.307,148.047 313.942 L 148.047 342.081 150.392 342.578 C 155.195 343.598,161.694 342.340,170.126 338.759 L 175.390 336.523 175.293 228.906 L 175.195 121.289 126.703 121.190 L 78.210 121.091 77.915 122.166 M68.359 123.405 C 65.131 124.468,63.036 125.339,49.316 131.320 L 36.719 136.813 36.719 235.162 C 36.719 324.482,36.775 333.532,37.337 333.747 C 37.676 333.878,38.951 333.985,40.169 333.985 C 45.441 333.986,52.755 335.874,62.116 339.651 C 65.573 341.046,68.920 342.188,69.553 342.188 L 70.703 342.188 70.703 232.422 C 70.703 172.051,70.659 122.666,70.605 122.677 C 70.552 122.689,69.541 123.016,68.359 123.405 M117.859 134.200 C 119.921 135.551,119.957 135.883,119.837 152.504 C 119.733 166.997,119.683 167.935,118.982 168.709 C 118.253 169.515,117.970 169.531,104.402 169.531 L 90.565 169.531 89.423 168.389 L 88.281 167.248 88.281 151.465 L 88.281 135.683 89.232 134.790 C 90.646 133.461,91.533 133.388,104.794 133.512 C 114.709 133.605,117.147 133.733,117.859 134.200 M162.693 134.490 L 163.980 135.777 164.142 151.384 C 164.311 167.750,164.231 168.687,162.612 169.318 C 162.228 169.468,155.954 169.570,148.669 169.546 C 134.417 169.499,133.598 169.387,132.939 167.396 C 132.750 166.822,132.633 140.838,132.797 135.654 C 132.854 133.860,135.587 133.578,155.801 133.285 L 161.406 133.203 162.693 134.490 M60.781 142.734 L 62.109 144.063 62.109 156.905 C 62.109 172.935,62.730 171.685,53.701 173.831 C 43.959 176.145,44.184 176.515,44.158 158.105 C 44.139 144.935,44.141 144.921,46.572 144.338 C 47.061 144.220,49.834 143.531,52.734 142.806 C 59.372 141.147,59.196 141.149,60.781 142.734 M162.187 184.032 C 164.048 185.010,164.063 185.148,164.063 201.480 C 164.063 211.273,163.917 217.121,163.660 217.600 C 162.668 219.454,161.852 219.547,147.807 219.409 L 134.651 219.279 133.605 218.108 L 132.558 216.937 132.653 201.418 C 132.748 185.855,132.817 185.018,134.091 183.907 C 134.774 183.311,161.037 183.428,162.187 184.032 M118.451 184.733 L 119.727 185.873 119.837 201.188 C 119.985 221.588,121.777 219.608,103.319 219.449 L 90.251 219.336 89.199 218.283 L 88.147 217.230 88.163 201.370 L 88.180 185.510 89.080 184.552 L 89.980 183.594 103.578 183.594 L 117.175 183.594 118.451 184.733 M60.818 188.052 L 61.914 188.994 62.035 202.603 C 62.200 221.160,62.669 220.141,53.587 220.945 C 45.998 221.616,46.200 221.626,45.099 220.526 L 44.141 219.567 44.141 206.879 C 44.141 190.641,43.324 192.300,52.930 189.018 C 59.328 186.832,59.390 186.824,60.818 188.052 M267.745 193.261 C 303.940 193.341,313.650 193.465,313.779 193.849 C 313.872 194.126,313.924 194.084,313.899 193.750 C 313.862 193.233,308.466 193.164,267.866 193.162 L 221.875 193.159 267.745 193.261 M313.842 212.500 C 313.842 218.193,313.897 220.522,313.964 217.676 C 314.031 214.829,314.031 210.171,313.964 207.324 C 313.897 204.478,313.842 206.807,313.842 212.500 M279.417 204.589 C 281.953 204.657,285.996 204.657,288.401 204.588 C 290.806 204.520,288.730 204.464,283.789 204.464 C 278.848 204.465,276.880 204.521,279.417 204.589 M232.916 204.968 C 233.509 205.058,234.388 205.055,234.869 204.962 C 235.349 204.870,234.863 204.796,233.789 204.799 C 232.715 204.802,232.322 204.878,232.916 204.968 M247.159 204.969 C 247.853 205.056,249.083 205.057,249.894 204.973 C 250.704 204.888,250.137 204.817,248.633 204.816 C 247.129 204.814,246.466 204.883,247.159 204.969 M271.613 209.961 C 271.614 211.465,271.685 212.032,271.769 211.222 C 271.854 210.411,271.853 209.181,271.766 208.487 C 271.680 207.794,271.611 208.457,271.613 209.961 M258.203 221.094 C 258.203 228.470,258.287 234.421,258.390 234.319 C 258.652 234.056,258.680 208.159,258.418 207.897 C 258.300 207.779,258.203 213.717,258.203 221.094 M302.461 211.328 C 302.461 212.510,302.534 212.993,302.624 212.402 C 302.713 211.812,302.713 210.845,302.624 210.254 C 302.534 209.663,302.461 210.146,302.461 211.328 M228.246 214.258 C 228.248 215.547,228.321 216.027,228.408 215.325 C 228.495 214.623,228.493 213.568,228.404 212.981 C 228.315 212.394,228.244 212.969,228.246 214.258 M271.656 223.633 C 271.656 229.648,271.711 232.055,271.777 228.980 C 271.843 225.906,271.843 220.984,271.776 218.043 C 271.710 215.102,271.656 217.617,271.656 223.633 M302.450 215.234 C 302.450 216.201,302.526 216.597,302.619 216.113 C 302.713 215.630,302.713 214.839,302.619 214.355 C 302.526 213.872,302.450 214.268,302.450 215.234 M216.903 217.188 C 216.903 218.154,216.979 218.550,217.073 218.066 C 217.166 217.583,217.166 216.792,217.073 216.309 C 216.979 215.825,216.903 216.221,216.903 217.188 M302.482 222.461 C 302.481 224.395,302.547 225.235,302.629 224.328 C 302.711 223.422,302.712 221.840,302.631 220.813 C 302.551 219.786,302.484 220.527,302.482 222.461 M216.943 225.977 C 216.944 228.340,217.008 229.256,217.086 228.013 C 217.164 226.770,217.163 224.836,217.084 223.716 C 217.006 222.596,216.942 223.613,216.943 225.977 M313.793 225.195 C 313.795 226.484,313.868 226.965,313.955 226.263 C 314.042 225.560,314.040 224.506,313.951 223.919 C 313.862 223.332,313.791 223.906,313.793 225.195 M302.503 233.203 C 302.503 236.748,302.562 238.198,302.634 236.426 C 302.707 234.653,302.707 231.753,302.634 229.980 C 302.562 228.208,302.503 229.658,302.503 233.203 M313.829 233.594 C 313.829 236.924,313.889 238.286,313.962 236.621 C 314.035 234.956,314.035 232.231,313.962 230.566 C 313.889 228.901,313.829 230.264,313.829 233.594 M216.895 232.617 C 216.900 233.477,216.980 233.782,217.073 233.296 C 217.167 232.810,217.163 232.107,217.065 231.734 C 216.967 231.360,216.891 231.758,216.895 232.617 M227.855 233.398 C 227.858 234.687,227.931 235.168,228.017 234.466 C 228.104 233.764,228.103 232.709,228.013 232.122 C 227.924 231.535,227.853 232.109,227.855 233.398 M109.121 233.592 L 117.266 233.594 118.594 234.922 L 119.922 236.250 119.922 251.861 L 119.922 267.472 118.926 268.467 C 117.529 269.864,116.073 269.966,102.454 269.615 L 90.651 269.312 89.466 268.176 L 88.281 267.041 88.281 251.542 C 88.281 232.150,87.877 233.023,96.680 233.404 C 99.043 233.506,104.642 233.591,109.121 233.592 M161.633 233.804 C 163.958 234.329,164.059 235.077,164.061 251.680 C 164.063 267.805,163.985 268.527,162.146 269.512 C 160.854 270.203,135.592 269.566,134.277 268.809 C 132.671 267.885,132.665 267.813,132.772 250.977 C 132.881 233.669,132.857 233.824,135.497 233.517 C 137.150 233.326,160.656 233.584,161.633 233.804 M258.334 237.500 C 258.334 239.111,258.403 239.771,258.488 238.965 C 258.572 238.159,258.572 236.841,258.488 236.035 C 258.403 235.229,258.334 235.889,258.334 237.500 M59.964 236.551 C 62.103 237.566,62.170 238.075,62.036 252.191 C 61.879 268.715,62.408 267.590,54.148 268.963 C 44.553 270.558,44.203 269.974,44.119 252.216 C 44.048 237.316,43.784 237.685,55.469 236.369 C 57.080 236.187,58.460 236.016,58.535 235.988 C 58.610 235.960,59.253 236.214,59.964 236.551 M271.583 237.305 C 271.587 238.164,271.667 238.470,271.761 237.984 C 271.854 237.498,271.851 236.795,271.753 236.421 C 271.655 236.048,271.579 236.445,271.583 237.305 M227.774 238.357 C 227.751 238.959,228.110 239.803,228.613 240.329 C 229.097 240.835,229.252 240.940,228.958 240.562 C 228.664 240.185,228.286 239.297,228.119 238.590 C 227.836 237.396,227.812 237.380,227.774 238.357 M237.207 242.086 C 238.442 242.163,240.464 242.163,241.699 242.086 C 242.935 242.008,241.924 241.945,239.453 241.945 C 236.982 241.945,235.972 242.008,237.207 242.086 M249.512 242.470 C 250.210 242.557,251.353 242.557,252.051 242.470 C 252.749 242.383,252.178 242.313,250.781 242.313 C 249.385 242.313,248.813 242.383,249.512 242.470 M286.251 242.479 C 288.465 242.549,291.980 242.549,294.064 242.478 C 296.147 242.408,294.336 242.351,290.039 242.352 C 285.742 242.352,284.038 242.409,286.251 242.479 M313.830 249.414 C 313.830 252.852,313.890 254.206,313.963 252.423 C 314.035 250.640,314.035 247.828,313.962 246.173 C 313.889 244.518,313.830 245.977,313.830 249.414 M216.895 254.102 C 216.900 254.961,216.980 255.267,217.073 254.781 C 217.167 254.295,217.163 253.592,217.065 253.218 C 216.967 252.845,216.891 253.242,216.895 254.102 M284.863 254.979 C 287.173 255.048,290.952 255.048,293.262 254.979 C 295.571 254.910,293.682 254.853,289.063 254.853 C 284.443 254.853,282.554 254.910,284.863 254.979 M241.249 255.531 C 241.337 255.673,244.257 255.812,247.739 255.840 C 251.220 255.868,253.966 255.789,253.840 255.663 C 253.521 255.344,241.053 255.214,241.249 255.531 M313.778 257.422 C 313.778 258.389,313.854 258.784,313.948 258.301 C 314.041 257.817,314.041 257.026,313.948 256.543 C 313.854 256.060,313.778 256.455,313.778 257.422 M216.903 257.813 C 216.903 258.779,216.979 259.175,217.073 258.691 C 217.166 258.208,217.166 257.417,217.073 256.934 C 216.979 256.450,216.903 256.846,216.903 257.813 M228.297 269.141 C 228.297 275.264,228.351 277.769,228.417 274.707 C 228.483 271.646,228.483 266.636,228.417 263.574 C 228.351 260.513,228.297 263.018,228.297 269.141 M258.372 268.750 C 258.372 274.014,258.427 276.167,258.495 273.535 C 258.563 270.903,258.563 266.597,258.495 263.965 C 258.427 261.333,258.372 263.486,258.372 268.750 M302.344 260.719 C 302.344 261.484,302.412 262.109,302.495 262.109 C 302.816 262.109,302.977 259.720,302.669 259.530 C 302.490 259.419,302.344 259.955,302.344 260.719 M271.660 274.805 C 271.660 282.109,271.713 285.042,271.777 281.323 C 271.841 277.603,271.841 271.626,271.777 268.041 C 271.712 264.457,271.660 267.500,271.660 274.805 M302.518 275.000 C 302.518 281.982,302.571 284.839,302.636 281.348 C 302.701 277.856,302.701 272.144,302.636 268.652 C 302.571 265.161,302.518 268.018,302.518 275.000 M216.922 266.016 C 216.922 267.412,216.993 267.983,217.079 267.285 C 217.166 266.587,217.166 265.444,217.079 264.746 C 216.993 264.048,216.922 264.619,216.922 266.016 M313.806 268.945 C 313.807 270.664,313.876 271.319,313.958 270.400 C 314.041 269.481,314.040 268.075,313.956 267.275 C 313.872 266.475,313.804 267.227,313.806 268.945 M313.822 276.953 C 313.822 279.639,313.885 280.737,313.961 279.395 C 314.037 278.052,314.037 275.854,313.961 274.512 C 313.885 273.169,313.822 274.268,313.822 276.953 M216.903 280.469 C 216.903 281.436,216.979 281.831,217.073 281.348 C 217.166 280.864,217.166 280.073,217.073 279.590 C 216.979 279.106,216.903 279.502,216.903 280.469 M258.700 284.766 C 258.700 285.732,258.776 286.128,258.869 285.645 C 258.963 285.161,258.963 284.370,258.869 283.887 C 258.776 283.403,258.700 283.799,258.700 284.766 M59.778 286.139 C 62.017 287.297,62.109 287.876,62.109 300.688 C 62.109 315.301,62.962 313.920,52.992 315.463 C 44.492 316.779,44.142 316.205,44.141 300.932 C 44.140 287.034,43.824 287.534,53.516 286.118 C 58.033 285.457,58.463 285.459,59.778 286.139 M313.778 289.063 C 313.778 290.029,313.854 290.425,313.948 289.941 C 314.041 289.458,314.041 288.667,313.948 288.184 C 313.854 287.700,313.778 288.096,313.778 289.063 M271.484 289.430 C 271.484 290.062,271.623 290.665,271.793 290.770 C 271.963 290.875,272.032 290.358,271.946 289.621 C 271.754 287.979,271.484 287.868,271.484 289.430 M313.770 293.164 C 313.775 294.023,313.855 294.329,313.948 293.843 C 314.042 293.357,314.038 292.654,313.940 292.281 C 313.842 291.907,313.766 292.305,313.770 293.164 M232.520 292.858 C 233.110 292.947,234.077 292.947,234.668 292.858 C 235.259 292.768,234.775 292.695,233.594 292.695 C 232.412 292.695,231.929 292.768,232.520 292.858 M244.238 292.847 C 244.614 292.946,245.229 292.946,245.605 292.847 C 245.981 292.749,245.674 292.669,244.922 292.669 C 244.170 292.669,243.862 292.749,244.238 292.847 M281.738 292.847 C 282.114 292.946,282.729 292.946,283.105 292.847 C 283.481 292.749,283.174 292.669,282.422 292.669 C 281.670 292.669,281.362 292.749,281.738 292.847 M290.337 292.858 C 290.931 292.948,291.810 292.946,292.291 292.853 C 292.771 292.760,292.285 292.687,291.211 292.690 C 290.137 292.693,289.744 292.769,290.337 292.858 M253.223 293.238 C 253.599 293.336,254.214 293.336,254.590 293.238 C 254.966 293.140,254.658 293.059,253.906 293.059 C 253.154 293.059,252.847 293.140,253.223 293.238 M313.770 299.414 C 313.775 300.273,313.855 300.579,313.948 300.093 C 314.042 299.607,314.038 298.904,313.940 298.531 C 313.842 298.157,313.766 298.555,313.770 299.414 M313.778 305.859 C 313.778 306.826,313.854 307.222,313.948 306.738 C 314.041 306.255,314.041 305.464,313.948 304.980 C 313.854 304.497,313.778 304.893,313.778 305.859 M282.547 309.375 C 282.547 310.771,282.618 311.343,282.704 310.645 C 282.791 309.946,282.791 308.804,282.704 308.105 C 282.618 307.407,282.547 307.979,282.547 309.375 M313.784 309.570 C 313.787 310.645,313.862 311.038,313.952 310.444 C 314.042 309.850,314.040 308.971,313.947 308.491 C 313.854 308.010,313.781 308.496,313.784 309.570 M245.453 315.234 C 245.453 317.275,245.519 318.110,245.600 317.090 C 245.680 316.069,245.680 314.399,245.600 313.379 C 245.519 312.358,245.453 313.193,245.453 315.234 M313.784 313.477 C 313.787 314.551,313.862 314.944,313.952 314.350 C 314.042 313.756,314.040 312.877,313.947 312.397 C 313.854 311.917,313.781 312.402,313.784 313.477 M313.797 318.750 C 313.797 320.146,313.868 320.718,313.954 320.020 C 314.041 319.321,314.041 318.179,313.954 317.480 C 313.868 316.782,313.797 317.354,313.797 318.750 M245.438 322.656 C 245.438 324.053,245.508 324.624,245.595 323.926 C 245.682 323.228,245.682 322.085,245.595 321.387 C 245.508 320.688,245.438 321.260,245.438 322.656 M216.888 351.172 C 216.888 351.924,216.968 352.231,217.066 351.855 C 217.164 351.479,217.164 350.864,217.066 350.488 C 216.968 350.112,216.888 350.420,216.888 351.172 " stroke="none" fill="#f9bb0a" fill-rule="evenodd"></path><path id="path4" d="M0.000 200.000 L 0.000 400.000 200.000 400.000 L 400.000 400.000 400.000 200.000 L 400.000 0.000 200.000 0.000 L 0.000 0.000 0.000 200.000 M121.680 19.826 C 131.890 22.588,139.372 30.175,142.576 41.016 C 143.633 44.595,143.282 44.310,145.735 43.581 C 153.352 41.320,164.935 47.470,169.228 56.055 C 173.851 65.300,172.709 77.129,167.025 78.866 C 164.161 79.741,46.654 79.575,45.473 78.694 C 43.203 77.001,42.673 71.067,44.438 67.102 C 46.083 63.404,50.758 60.100,55.957 58.961 C 57.984 58.517,58.204 58.371,58.209 57.457 C 58.279 45.236,72.365 35.075,84.570 38.441 C 85.223 38.621,85.577 38.200,86.719 35.885 C 93.276 22.593,107.593 16.017,121.680 19.826 M275.781 19.907 C 300.624 24.674,323.341 44.631,326.710 64.648 L 327.170 67.383 329.893 67.615 C 340.370 68.506,349.712 76.561,352.832 87.393 C 353.964 91.322,353.603 91.038,356.641 90.396 C 374.225 86.682,389.028 105.362,380.241 120.178 C 376.738 126.084,378.671 125.774,345.313 125.793 L 317.383 125.810 315.430 128.356 C 300.545 147.757,272.327 157.542,247.335 151.968 C 196.556 140.641,177.386 76.552,213.643 39.324 C 230.099 22.427,252.474 15.436,275.781 19.907 M115.649 93.371 C 139.536 93.356,140.647 93.413,141.498 94.687 C 141.656 94.924,141.788 99.468,141.791 104.785 L 141.797 114.453 160.521 114.453 C 178.979 114.453,180.979 114.575,181.724 115.747 C 181.887 116.002,182.022 143.520,182.025 176.897 C 182.031 234.534,182.066 237.570,182.715 237.315 C 183.091 237.167,185.160 236.381,187.313 235.568 C 191.378 234.035,192.905 233.278,196.416 231.062 C 198.904 229.491,202.842 228.948,207.227 229.572 C 208.730 229.787,210.010 229.924,210.071 229.878 C 210.388 229.635,210.618 206.985,210.367 200.720 L 210.074 193.432 206.432 193.298 C 198.593 193.010,198.445 191.225,205.509 182.187 C 211.346 174.717,214.205 171.126,215.625 169.481 L 216.602 168.350 230.469 168.155 C 253.492 167.832,324.352 167.949,325.620 168.313 C 327.921 168.973,335.752 173.565,344.518 179.396 C 347.505 181.383,351.758 184.146,353.969 185.538 C 356.180 186.929,358.282 188.360,358.640 188.718 C 359.237 189.316,359.279 191.936,359.162 221.344 C 359.032 253.887,359.098 256.965,359.906 256.298 C 364.236 252.725,379.138 253.426,383.171 257.393 L 384.591 258.789 384.709 317.080 C 384.842 382.902,385.047 378.254,381.866 381.436 C 379.067 384.235,393.666 384.037,199.219 383.907 L 22.461 383.789 20.395 382.856 C 17.820 381.692,15.475 379.103,14.889 376.777 C 14.581 375.552,14.453 361.947,14.453 330.286 L 14.453 285.528 15.527 285.063 C 16.140 284.798,19.457 284.508,23.242 284.389 L 29.883 284.180 30.002 208.789 C 30.100 146.062,30.209 133.262,30.651 132.585 C 31.208 131.732,31.615 131.542,47.852 124.579 C 71.545 114.417,71.971 114.277,79.237 114.266 L 84.841 114.258 84.785 104.989 C 84.715 93.550,85.122 92.619,89.942 93.173 C 90.963 93.290,102.531 93.380,115.649 93.371 " stroke="none" fill="#faf3ec" fill-rule="evenodd"></path></g></svg>